HIERARCHY
ROOT Hips
{
	OFFSET 0 0 0
	CHANNELS 6 Xposition Yposition Zposition Yrotation Xrotation Zrotation
	JOINT Spine
	{
		OFFSET -0 8.18458 -2.60884
		CHANNELS 3 Yrotation Xrotation Zrotation
		JOINT Spine1
		{
			OFFSET -0 7.64996 0
			CHANNELS 3 Yrotation Xrotation Zrotation
			JOINT Spine2
			{
				OFFSET -0 7.64996 0
				CHANNELS 3 Yrotation Xrotation Zrotation
				JOINT Spine3
				{
					OFFSET -0 7.64996 0
					CHANNELS 3 Yrotation Xrotation Zrotation
					JOINT Neck
					{
						OFFSET -0 20.2406 3.60884
						CHANNELS 3 Yrotation Xrotation Zrotation
						JOINT Head
						{
							OFFSET -0 10.2307 0
							CHANNELS 3 Yrotation Xrotation Zrotation
							End Site
							{
								OFFSET 0 15 0
							}
						}
					}
					JOINT LeftShoulder
					{
						OFFSET 1.70512 8.71402 3.41024
						CHANNELS 3 Yrotation Xrotation Zrotation
						JOINT LeftArm
						{
							OFFSET 16.1177 0 0
							CHANNELS 3 Yrotation Xrotation Zrotation
							JOINT LeftForeArm
							{
								OFFSET 25.6257 0 0
								CHANNELS 3 Yrotation Xrotation Zrotation
								JOINT LeftHand
								{
									OFFSET 24.0244 0 0
									CHANNELS 3 Yrotation Xrotation Zrotation
									End Site
									{
										OFFSET 15 0 0
									}
								}
							}
						}
					}
					JOINT RightShoulder
					{
						OFFSET -1.70512 8.71402 3.41024
						CHANNELS 3 Yrotation Xrotation Zrotation
						JOINT RightArm
						{
							OFFSET -16.1177 0 0
							CHANNELS 3 Yrotation Xrotation Zrotation
							JOINT RightForeArm
							{
								OFFSET -25.6257 0 0
								CHANNELS 3 Yrotation Xrotation Zrotation
								JOINT RightHand
								{
									OFFSET -24.0244 0 0
									CHANNELS 3 Yrotation Xrotation Zrotation
									End Site
									{
										OFFSET -15 0 0
									}
								}
							}
						}
					}
				}
			}
		}
	}
	JOINT LeftUpLeg
	{
		OFFSET 10.2307 -3.41024 2
		CHANNELS 3 Yrotation Xrotation Zrotation
		JOINT LeftLeg
		{
			OFFSET -0 -40.9418 2.38717
			CHANNELS 3 Yrotation Xrotation Zrotation
			JOINT LeftFoot
			{
				OFFSET -0 -40.8162 -2.38717
				CHANNELS 3 Yrotation Xrotation Zrotation
				JOINT LeftToeBase
				{
					OFFSET -0 -6.58348 15.3461
					CHANNELS 3 Yrotation Xrotation Zrotation
					End Site
					{
						OFFSET 0 0 5
					}
				}
			}
		}
	}
	JOINT RightUpLeg
	{
		OFFSET -10.2307 -3.41024 2
		CHANNELS 3 Yrotation Xrotation Zrotation
		JOINT RightLeg
		{
			OFFSET -0 -40.9418 2.38717
			CHANNELS 3 Yrotation Xrotation Zrotation
			JOINT RightFoot
			{
				OFFSET -0 -40.8162 -2.38717
				CHANNELS 3 Yrotation Xrotation Zrotation
				JOINT RightToeBase
				{
					OFFSET -0 -6.58348 15.3461
					CHANNELS 3 Yrotation Xrotation Zrotation
					End Site
					{
						OFFSET 0 0 5
					}
				}
			}
		}
	}
}
MOTION
Frames: 6
Frame Time: 0.00833333
-10.343195 86.245111 -17.909804 -9.582292 7.040349 -2.147568 -2.016996 4.394724 -4.689410 -3.773582 3.666871 -3.967887 -1.223845 3.093312 -3.150417 -1.785330 2.570640 -2.129049 -2.123785 -17.802321 8.395446 -1.051788 -1.168252 4.653208 -1.809006 -2.267002 -3.613181 -46.195064 -50.546746 -19.983655 -114.185944 4.156346 26.837293 18.102056 -60.806620 -37.194652 -7.508906 3.071150 1.937716 34.337614 19.558267 78.673456 56.502060 15.427975 20.412682 -12.311511 2.488166 36.664679 17.985645 -38.025459 11.643961 0.000000 38.710510 0.000000 20.523174 -0.821138 -7.093933 0.000000 -5.935682 0.000000 -20.061799 -30.413689 -10.263644 0.000000 40.233185 0.000000 -31.776179 0.230181 13.775289 0.000000 -13.177662 0.000000
-10.350433 86.549524 -17.908881 -9.522578 6.986760 -2.159406 -2.080334 4.426145 -4.597030 -3.842221 3.548064 -3.959134 -1.259602 3.131539 -3.116613 -1.862213 2.642819 -2.303734 -1.860442 -17.647222 7.999171 -0.984670 -1.346264 4.804532 -1.522741 -1.848354 -3.424717 -44.832922 -48.887893 -21.007537 -113.348875 2.786277 24.758656 16.787490 -59.153872 -34.712264 -7.610533 3.096613 1.582276 34.059550 19.186836 78.682151 56.598090 15.753889 20.783165 -12.399949 2.564260 36.765591 16.140762 -37.108344 12.164745 0.000000 37.819696 0.000000 21.322504 -1.087993 -7.392909 0.000000 -6.306593 0.000000 -17.490284 -29.398552 -10.594215 0.000000 39.333739 0.000000 -30.809455 -0.682558 13.855919 0.000000 -13.463344 0.000000
-10.378831 86.853607 -17.886298 -9.474665 6.910527 -2.160625 -2.177183 4.272687 -4.515999 -3.878072 3.667089 -3.974875 -1.310821 3.207855 -3.251363 -1.915050 2.634972 -2.277766 -1.662638 -17.615534 7.763630 -0.883974 -1.271970 4.604696 -1.341353 -1.439236 -3.352396 -44.193516 -46.567377 -20.923196 -112.524994 0.989256 23.254889 16.377593 -56.860885 -33.072109 -7.589470 3.109917 1.252002 33.961375 18.994661 78.821532 56.563001 15.457284 20.867457 -12.998977 3.032372 36.382983 14.155737 -36.106329 12.710562 0.000000 36.946714 0.000000 21.962512 -1.625221 -7.620862 0.000000 -6.480969 0.000000 -14.662984 -28.275227 -10.977054 0.000000 38.413773 0.000000 -29.397507 -1.660305 14.111828 0.000000 -13.737428 0.000000
-10.372443 87.142810 -17.860139 -9.523083 6.896826 -2.047469 -2.227930 4.218335 -4.626274 -3.879015 3.529900 -3.993093 -1.406394 3.248381 -3.227077 -1.985397 2.699897 -2.208973 -1.326277 -17.487371 7.220319 -0.789955 -1.243519 4.684504 -0.909737 -1.196691 -3.477877 -43.865086 -44.081280 -20.531372 -111.219262 -0.678957 21.498769 16.076310 -55.383164 -31.585241 -7.435022 3.217205 0.856172 33.575859 18.808749 78.720273 56.678132 15.502529 21.157191 -12.997330 2.792366 36.413167 12.238206 -35.041030 13.076211 0.000000 36.040881 0.000000 22.130163 -2.193345 -7.842247 0.000000 -6.874494 0.000000 -11.403658 -27.191640 -11.540585 0.000000 37.508376 0.000000 -27.715931 -2.773348 14.489716 0.000000 -13.434345 0.000000
-10.371428 87.426227 -17.833817 -9.474073 6.855475 -1.862168 -2.304049 4.160383 -4.753271 -3.926237 3.518905 -4.064587 -1.423043 3.263334 -3.181673 -2.014082 2.752045 -2.210398 -1.099145 -17.503730 6.763340 -0.752005 -1.112214 4.832761 -0.727938 -1.159872 -3.270443 -43.225808 -41.698598 -20.091657 -109.934859 -2.848362 19.580968 15.834980 -53.812263 -30.388785 -7.566262 3.315044 0.485748 33.761247 18.628891 78.767307 56.678404 15.248373 21.240026 -13.249921 2.952190 35.980863 10.201385 -33.977637 13.395227 0.000000 35.199093 0.000000 21.530273 -2.554607 -8.318945 0.000000 -7.168433 0.000000 -8.194928 -26.008026 -12.124900 0.000000 36.487200 0.000000 -25.916748 -3.783154 14.753440 0.000000 -13.399115 0.000000
-10.365975 87.684863 -17.777672 -9.495589 6.737629 -1.678664 -2.389670 4.093983 -4.741843 -4.008728 3.555550 -4.161010 -1.409318 3.262023 -3.377017 -1.954643 2.752019 -2.183050 -0.928083 -17.404979 6.693602 -0.609342 -0.919506 4.374453 -0.688989 -1.206106 -2.995698 -42.435508 -39.549317 -19.457765 -108.286252 -4.974270 17.208615 15.248888 -52.637389 -29.307305 -7.585780 3.277585 0.199078 33.637917 18.674301 78.848676 56.677205 14.978955 21.399359 -13.271343 3.291330 35.788145 8.115756 -32.758667 13.737059 0.000000 34.340383 0.000000 20.275274 -2.987904 -8.825714 0.000000 -7.501951 0.000000 -4.913992 -24.770589 -12.679611 0.000000 35.613364 0.000000 -23.924350 -4.806146 14.887917 0.000000 -13.383722 0.000000
